/* XPM */
static char *xpm_[] = {
/* columns rows colors chars-per-pixel */
"100 100 9 1 ",
"  c black",
". c #990030",
"X c #9C5A3C",
"o c #546D8E",
"O c #6C6087",
"+ c #897CAF",
"@ c #709AD1",
"# c #BD9F88",
"$ c #FAD1B1",
/* pixels */
"++++++++++++++++++++++++++++++++++++++++++++++++++++++++++++++++++++++++++++++++++++++++++++++++++++",
"++++++++++++++++++++++++++++++++++++++++++++++++++++++++++++++++++++++++++++++++++++++++++++++++++++",
"++++++++++++++++++++++++++++++++++++++++++++++++++++++++++++++++++++++++++++++++++++++++++++++++++++",
"++++++++++++++++++++++++++++++++++++++++++++++++++++++++++++++++++++++++++++++++++++++++++++++++++++",
"++++++++++++++++++++++++++++++++++++++++++++++++++++++++++++++++++++++++++++++++++++++++++++++++++++",
"++++++++++++++++++++++++++++++++++++++++++++++++++++++++++++++++++++++++++++++++++++++++++++++++++++",
"++++++++++++++++++++++++++++++++++++++++++++++++++++++++++++++++++++++++++++++++++++++++++++++++++++",
"++++++++++++++++++++++++++++++++++++++++++++++++++++++++++++++++++++++++++++++++++++++++++++++++++++",
"++++++++++++++++++++++++++++++++++++++++++++++++++++++++++++++++++++++++++++++++++++++++++++++++++++",
"OOOOOOOOOOOOOOOOOOOOOOOOOOOOOOOOOOOOOOOOOOOOOOOOOOOOOOOOOOOOOOOOOOOOOOOOOOOOOOOOOOOOOOOOOOOOOOOOOOOO",
"++++++++++++++++++++++++++++++++++++++++++++++++++++++++++++++++++++++++++++++++++++++++++++++++++++",
"++++++++++++++++++++++++++++++++++++++++++++++++++++++++++++++++++++++++++++++++++++++++++++++++++++",
"++++++++++++++++++++++++++++++++++++++++++++++++++++++++++++++++++++++++++++++++++++++++++++++++++++",
"++++++++++++++++++++++++++++++++++++++++++++++++++++++++++++++++++++++++++++++++++++++++++++++++++++",
"++++++++++++++++++++++++++++++++++++++++++++++++++++++++++++++++++++++++++++++++++++++++++++++++++++",
"++++++++++++++++++++++++++++++++++++++++++++++++++++++++++++++++++++++++++++++++++++++++++++++++++++",
"++++++++++++++++++++++++++++++++++++++++++++++++++++++++++++++++++++++++++++++++++++++++++++++++++++",
"++++++++++++++++++++++++++++++++++++++++++++++++++++++++++++++++++++++++++++++++++++++++++++++++++++",
"++++++++++++++++++++++++++++++++++++++++++++++++++++++++++++++++++++++++++++++++++++++++++++++++++++",
"OOOOOOOOOOOOOOOOOOOOOOOOOOOOOOOOOOOOOOOOOOOOOOOOOOOOOOOOOOOOOOOOOOOOOOOOOOOOOOOOOOOOOOOOOOOOOOOOOOOO",
"++++++++++++++++++++++++++++++++++++++++++++++++++++++++++++++++++++++++++++++++++++++++++++++++++++",
"++++++++++++++++++++++++++++++++++++++++++++++++++++++++++++++++++++++++++++++++++++++++++++++++++++",
"++++++++++++++++++++++++++++++++++++++++++++        ++++++++++++++++++++++++++++++++++++++++++++++++",
"+++++++++++++++++++++++++++++++++++++++      XXXXXX       ++++++++++++++++++++++++++++++++++++++++++",
"++++++++++++++++++++++++++++++++++++    XXXXXXXXXXXXXXXXXX   +++++++++++++++++++++++++++++++++++++++",
"+++++++++++++++++++++++++++++++++++  XXXXXXXXXXXXXXXXXXXXXXXX ++++++++++++++++++++++++++++++++++++++",
"++++++++++++++++++++++++++++++++++  XXXXXXXXXXXXXXXXXXXXXXXXXX  ++++++++++++++++++++++++++++++++++++",
"+++++++++++++++++++++++++++++++++  XXXXXXXXXXXXXXXXXXXXXXXXXXXX ++++++++++++++++++++++++++++++++++++",
"++++++++++++++++++++++++++++++++  XXXXXXXXXXXXXXXXXXXXXXXXXXXXX  +++++++++++++++++++++++++++++++++++",
"OOOOOOOOOOOOOOOOOOOOOOOOOOOOOOO XXXXXXXXXXXXXXXXXXXXXXXXXXXXXXXX OOOOOOOOOOOOOOOOOOOOOOOOOOOOOOOOOOO",
"+++++++++++++++++++++++++++++++ XXXXXXXXXXXXXXXXXXXXXXXXXXXXXXXX +++++++++++++++++++++++++++++++++++",
"+++++++++++++++++++++++++++++++ XXXXXXXXXXXXXXXXXXXXXXXXXXXXXXXXX ++++++++++++++++++++++++++++++++++",
"++++++++++++++++++++++++++++++  XXXXXXXXXXXXXXXXXXXXXXXXXXXXXXXXX ++++++++++++++++++++++++++++++++++",
"++++++++++++++++++++++++++++++ XXXXXXXXXXXXXXXXXXXXXXXXXXXXXXXXXXX +++++++++++++++++++++++++++++++++",
"++++++++++++++++++++++++++++++   XXXXXXXXXXXXXXXXXXXXXXXXXXXXXXX   +++++++++++++++++++++++++++++++++",
"++++++++++++++++++++++++++++++ XXXXXXXXXXXXXXXXXXXXXXXXXXXXXXXXXXXX ++++++++++++++++++++++++++++++++",
"++++++++++++++++++++++++++++++ XXXXXXXXXXXXXXXXXXXXXXXXXXXXXXXXXXXX  +++++++++++++++++++++++++++++++",
"++++++++++++++++++++++++++++++ XXXXXXXXXXXXXXXXXXXXXXXXXXXXXXXXXXXXX +++++++++++++++++++++++++++++++",
"++++++++++++++++++++++++++++++ XXXXXXXXXXXXXXXXXXXXXXXXXXXXXXXXXXXXX +++++++++++++++++++++++++++++++",
"OOOOOOOOOOOOOOOOOOOOOOOOOOOOOO XXXXXXXXXXXXXXXXXXXXXXXXXXXXXXXXXXXXX OOOOOOOOOOOOOOOOOOOOOOOOOOOOOOO",
"++++++++++++++++++++++++++++++ XXXXXXXXXXXXXXXXXXXXXXXXXXXXXXXXXXXXX +++++++++++++++++++++++++++++++",
"++++++++++++++++++++++++++++++  XXXXXXXXXXXXXXXXXXXXXXXXXXXXXXXXXXX  +++++++++++++++++++++++++++++++",
"++++++++++++++++++++++++++++++  XX  XXXXXXXXXXXXXXXXXXXXXXXXXX  XX  ++++++++++++++++++++++++++++++++",
"+++++++++++++++++++++++++++++++     XXXXXXXXXXXXXXXXXXXXXXXXXX      ++++++++++++++++++++++++++++++++",
"+++++++++++++++++++++++++++++++ $$$ XXXXXXXXXXXXXXXXXXXXXXXXXX $$$$ ++++++++++++++++++++++++++++++++",
"+++++++++++++++++++++++++++++++ $$$ XXXXXXXXXXXXXXXXXXXXXXXXX  $$$$ ++++++++++++++++++++++++++++++++",
"+++++++++++++++++++++++++++++++ $$$$  XXXXXXXXXXXXXXXXXXXXXX  $$$$$ ++++++++++++++++++++++++++++++++",
"+++++++++++++++++++++++++++++++ $$$$$   XXXXXXXXXXXXXXXXXX  $$$$$$$ ++++++++++++++++++++++++++++++++",
"+++++++++++++++++++++++++++++++ $$$$$$   XXXXXXXXXXXXXXXX  $$$$$$$$ ++++++++++++++++++++++++++++++++",
"OOOOOOOOOOOOOOOOOOOOOOOOOOOOOOO    $$$$$                  $$$$$$    OOOOOOOOOOOOOOOOOOOOOOOOOOOOOOOO",
"++++++++++++++++++++++++++++++++++  $$$$$$$             $$$$$$$  +++++++++++++++++++++++++++++++++++",
"+++++++++++++++++++++++++++++++++++  $$$$$$$$         $$$$$$$$  ++++++++++++++++++++++++++++++++++++",
"++++++++++++++++++++++++++++++++++++  $$$$$$$$$$$$$$$$$$$$$$$  +++++++++++++++++++++++++++++++++++++",
"+++++++++++++++++++++++++++++++++++++  $$$$$$$$$$$$$$$$$$$$$  ++++++++++++++++++++++++++++++++++++++",
"++++++++++++++++++++++++++++++++++++++  $$$$$$$$$$$$$$$$$$$  +++++++++++++++++++++++++++++++++++++++",
"+++++++++++++++++++++++++++++++++++++++                     ++++++++++++++++++++++++++++++++++++++++",
"++++++++++++++++++++++++++++++++++++++++++++++ ooooo +++++++++++++++++++++++++++++++++++++++++++++++",
"+++++++++++++++++++++++++++++++++++++++++      @@@@@      ++++++++++++++++++++++++++++++++++++++++++",
"++++++++++++++++++++++++++++++++++++++++  @@@@@@@@@@@@@@@  +++++++++++++++++++++++++++++++++++++++++",
"OOOOOOOOOOOOOOOOOOOOOOOOOOOOOOOOOOOOOOO   @@@@@@@@@@@@@@@   OOOOOOOOOOOOOOOOOOOOOOOOOOOOOOOOOOOOOOOO",
"+++++++++++++++++++++++++++++++++++++++ @@@@@@@@@@@@@@@@@@@ ++++++++++++++++++++++++++++++++++++++++",
"+++++++++++++++++++++++++++++++++++++++ @@@@@@@@@@@@@@@@@@@ ++++++++++++++++++++++++++++++++++++++++",
"+++++++++++++++++++++++++++++++++++++++ @@@@@@@@@@@@@@@@@@@ ++++++++++++++++++++++++++++++++++++++++",
"+++++++++++++++++++++++++++++++++++++++ @ @@@@@@@@@@@@@@@ @ ++++++++++++++++++++++++++++++++++++++++",
"+++++++++++++++++++++++++++++++++++++++ @ @@@@@@@@@@@@@@@ @ ++++++++++++++++++++++++++++++++++++++++",
"+++++++++++++++++++++++++++++++++++++++ o @@@@@@@@@@@@@@@ o ++++++++++++++++++++++++++++++++++++++++",
"+++++++++++++++++++++++++++++++++++++++ @ @@@@@@@@@@@@@@@ @ ++++++++++++++++++++++++++++++++++++++++",
"+++++++++++++++++++++++++++++++++++++++ @ @@@@@@@@@@@@@@@ @ ++++++++++++++++++++++++++++++++++++++++",
"+++++++++++++++++++++++++++++++++++++++ @ @@@@@@@@@@@@@@@ @ ++++++++++++++++++++++++++++++++++++++++",
"OOOOOOOOOOOOOOOOOOOOOOOOOOOOOOOOOOOOOOO # @@@@@@@@@@@@@@@ # OOOOOOOOOOOOOOOOOOOOOOOOOOOOOOOOOOOOOOOO",
"+++++++++++++++++++++++++++++++++++++++ $ @@@@@@@@@@@@@@@ $ ++++++++++++++++++++++++++++++++++++++++",
"++++++++++++++++++++++++++++++++++++++++  @@@@@@@@@@@@@@@  +++++++++++++++++++++++++++++++++++++++++",
"+++++++++++++++++++++++++++++++++++++++++ @@@@@@@@@@@@@@@ ++++++++++++++++++++++++++++++++++++++++++",
"+++++++++++++++++++++++++++++++++++++++++ @@@@@@@@@@@@@@@ ++++++++++++++++++++++++++++++++++++++++++",
"+++++++++++++++++++++++++++++++++++++++++                 ++++++++++++++++++++++++++++++++++++++++++",
"+++++++++++++++++++++++++++++++++++++++++                 ++++++++++++++++++++++++++++++++++++++++++",
"++++++++++++++++++++++++++++++++++++++++++ ......  ...... ++++++++++++++++++++++++++++++++++++++++++",
"++++++++++++++++++++++++++++++++++++++++++                ++++++++++++++++++++++++++++++++++++++++++",
"++++++++++++++++++++++++++++++++++++++++++++++++++++++++++++++++++++++++++++++++++++++++++++++++++++",
"OOOOOOOOOOOOOOOOOOOOOOOOOOOOOOOOOOOOOOOOOOOOOOOOOOOOOOOOOOOOOOOOOOOOOOOOOOOOOOOOOOOOOOOOOOOOOOOOOOOO",
"++++++++++++++++++++++++++++++++++++++++++++++++++++++++++++++++++++++++++++++++++++++++++++++++++++",
"++++++++++++++++++++++++++++++++++++++++++++++++++++++++++++++++++++++++++++++++++++++++++++++++++++",
"++++++++++++++++++++++++++++++++++++++++++++++++++++++++++++++++++++++++++++++++++++++++++++++++++++",
"++++++++++++++++++++++++++++++++++++++++++++++++++++++++++++++++++++++++++++++++++++++++++++++++++++",
"++++++++++++++++++++++++++++++++++++++++++++++++++++++++++++++++++++++++++++++++++++++++++++++++++++",
"++++++++++++++++++++++++++++++++++++++++++++++++++++++++++++++++++++++++++++++++++++++++++++++++++++",
"++++++++++++++++++++++++++++++++++++++++++++++++++++++++++++++++++++++++++++++++++++++++++++++++++++",
"++++++++++++++++++++++++++++++++++++++++++++++++++++++++++++++++++++++++++++++++++++++++++++++++++++",
"++++++++++++++++++++++++++++++++++++++++++++++++++++++++++++++++++++++++++++++++++++++++++++++++++++",
"OOOOOOOOOOOOOOOOOOOOOOOOOOOOOOOOOOOOOOOOOOOOOOOOOOOOOOOOOOOOOOOOOOOOOOOOOOOOOOOOOOOOOOOOOOOOOOOOOOOO",
"++++++++++++++++++++++++++++++++++++++++++++++++++++++++++++++++++++++++++++++++++++++++++++++++++++",
"++++++++++++++++++++++++++++++++++++++++++++++++++++++++++++++++++++++++++++++++++++++++++++++++++++",
"++++++++++++++++++++++++++++++++++++++++++++++++++++++++++++++++++++++++++++++++++++++++++++++++++++",
"++++++++++++++++++++++++++++++++++++++++++++++++++++++++++++++++++++++++++++++++++++++++++++++++++++",
"++++++++++++++++++++++++++++++++++++++++++++++++++++++++++++++++++++++++++++++++++++++++++++++++++++",
"++++++++++++++++++++++++++++++++++++++++++++++++++++++++++++++++++++++++++++++++++++++++++++++++++++",
"++++++++++++++++++++++++++++++++++++++++++++++++++++++++++++++++++++++++++++++++++++++++++++++++++++",
"++++++++++++++++++++++++++++++++++++++++++++++++++++++++++++++++++++++++++++++++++++++++++++++++++++",
"++++++++++++++++++++++++++++++++++++++++++++++++++++++++++++++++++++++++++++++++++++++++++++++++++++",
"++++++++++++++++++++++++++++++++++++++++++++++++++++++++++++++++++++++++++++++++++++++++++++++++++++"
};
