/* XPM */
static char *xpm_[] = {
/* columns rows colors chars-per-pixel */
"100 100 6 1 ",
"  c black",
". c #464646",
"X c #B0AEB0",
"o c #A597C9",
"O c #EBE6EB",
"+ c white",
/* pixels */
"oooooooooooooooooooooooooooooooooooooooooooooooooooooooooooooooooooooooooooooooooooooooooooooooooooo",
"oooooooooooooooooooooooooooooooooooooooooooooooooooooooooooooooooooooooooooooooooooooooooooooooooooo",
"oooooooooooooooooooooooooooooooooooooooooooooooooooooooooooooooooooooooooooooooooooooooooooooooooooo",
"oooooooooooooooooooooooooooooooooooooooooooooooooooooooooooooooooooooooooooooooooooooooooooooooooooo",
"oooooooooooooooooooooooooooooooooooooooooooooooooooooooooooooooooooooooooooooooooooooooooooooooooooo",
"oooooooooooooooooooooooooooooooooooooooooooooooooooooooooooooooooooooooooooooooooooooooooooooooooooo",
"oooooooooooooooooooooooooooooooooooooooooooooooooooooooooooooooooooooooooooooooooooooooooooooooooooo",
"oooooooooooooooooooooooooooooooooooooooooooooooooooooooooooooooooooooooooooooooooooooooooooooooooooo",
"oooooooooooooooooooooooooooooooooooooooooooooooooooooooooooooooooooooooooooooooooooooooooooooooooooo",
"oooooooooooooooooooooooooooooooooooooooooooooooooooooooooooooooooooooooooooooooooooooooooooooooooooo",
"oooooooooooooo                                                                       ooooooooooooooo",
"ooooooooooooo OOOOOOOOOOOOOOOOOOOOOOOOOOOOOOOOOOOOOOOOOOOOOOOOOOOOOOOOOOOOOOOOOOOOOOO oooooooooooooo",
"ooooooooooooo OOOOOOOOOOOOOOOOOOOOOOOOOOOOOOOOOOOOOOOOOOOOOOOOOOOOOOOOOOOOOOOOOOOOOOO oooooooooooooo",
"ooooooooooooo OO+                                                                +OOO oooooooooooooo",
"ooooooooooooo OO ................................................................ OOO oooooooooooooo",
"ooooooooooooo OO ................................................................ OOO oooooooooooooo",
"ooooooooooooo OO ................................................................ OOO oooooooooooooo",
"ooooooooooooo OO ................................................................ OOO oooooooooooooo",
"ooooooooooooo OO ................................................................ OOO oooooooooooooo",
"ooooooooooooo OO ................................................................ OOO oooooooooooooo",
"ooooooooooooo OO ................................................................ OOO oooooooooooooo",
"ooooooooooooo OO ................................................................ OOO oooooooooooooo",
"ooooooooooooo OO ................................................................ OOO oooooooooooooo",
"ooooooooooooo OO ................................................................ OOO oooooooooooooo",
"ooooooooooooo OO ................................................................ OOO oooooooooooooo",
"ooooooooooooo OO ................................................................ OOO oooooooooooooo",
"ooooooooooooo OO ................................................................ OOO oooooooooooooo",
"ooooooooooooo OO ................................................................ OOO oooooooooooooo",
"ooooooooooooo OO ................................................................ OOO oooooooooooooo",
"ooooooooooooo OO ................................................................ OOO oooooooooooooo",
"ooooooooooooo OO ................................................................ OOO oooooooooooooo",
"ooooooooooooo OO ................................................................ OOO oooooooooooooo",
"ooooooooooooo OO ................................................................ OOO oooooooooooooo",
"ooooooooooooo OO ................................................................ OOO oooooooooooooo",
"ooooooooooooo OO ................................................................ OOO oooooooooooooo",
"ooooooooooooo OO ................................................................ OOO oooooooooooooo",
"ooooooooooooo OO ................................................................ OOO oooooooooooooo",
"ooooooooooooo OO ................................................................ OOO oooooooooooooo",
"ooooooooooooo OO ................................................................ OOO oooooooooooooo",
"ooooooooooooo OO ................................................................ OOO oooooooooooooo",
"ooooooooooooo OO ................................................................ OOO oooooooooooooo",
"ooooooooooooo OO ................................................................ OOO oooooooooooooo",
"ooooooooooooo OO ................................................................ OOO oooooooooooooo",
"ooooooooooooo OO ................................................................ OOO oooooooooooooo",
"ooooooooooooo OO ................................................................ OOO oooooooooooooo",
"ooooooooooooo OO ................................................................ OOO oooooooooooooo",
"ooooooooooooo OO ................................................................ OOO oooooooooooooo",
"ooooooooooooo OO ................................................................ OOO oooooooooooooo",
"ooooooooooooo OO ................................................................ OOO oooooooooooooo",
"ooooooooooooo OO ................................................................ OOO oooooooooooooo",
"ooooooooooooo OO ................................................................ OOO oooooooooooooo",
"ooooooooooooo OO ................................................................ OOO oooooooooooooo",
"ooooooooooooo OO ................................................................ OOO oooooooooooooo",
"ooooooooooooo OO ................................................................ OOO oooooooooooooo",
"ooooooooooooo OO ................................................................ OOO oooooooooooooo",
"ooooooooooooo OO ................................................................ OOO oooooooooooooo",
"ooooooooooooo OO ................................................................ OOO oooooooooooooo",
"ooooooooooooo OO ................................................................ OOO oooooooooooooo",
"ooooooooooooo OO ................................................................ OOO oooooooooooooo",
"ooooooooooooo OO ................................................................ OOO oooooooooooooo",
"ooooooooooooo OO ................................................................ OOO oooooooooooooo",
"ooooooooooooo OO ................................................................ OOO oooooooooooooo",
"ooooooooooooo OO ................................................................ OOO oooooooooooooo",
"ooooooooooooo OO ................................................................ OOO oooooooooooooo",
"ooooooooooooo OO ................................................................ OOO oooooooooooooo",
"ooooooooooooo OO ................................................................ OOO oooooooooooooo",
"ooooooooooooo OO+                                                                +OOO oooooooooooooo",
"ooooooooooooo OOOOOOOOOOOOOOOOOOOOOOOOOOOOOOOOOOOOOOOOOOOOOOOOOOOOOOOOOOOOOOOOOOOOOOO oooooooooooooo",
"ooooooooooooo  OOOOOOOOOOOOOOOOOOOOOOOOOOOOOOOOOOOOOOOOOOOOOOOOOOOOOOOOOOOOOOOOOOOOOO oooooooooooooo",
"ooooooooooooooo                                                                      ooooooooooooooo",
"ooooooooooooooooooooooooooooooOOOOOOOOOOOOOOOOOOOOOOOOOOOOOOOOOOOOOOOOOO O ooooooooooooooooooooooooo",
"ooooooooooooooooooooooooooooo OXX XXXX XXXXXXXXXXXXXXXOXXXOXXXOXXXXXXXXO O ooooooooooooooooooooooooo",
"ooooooooooooooooooooooooooooo OX   XX X XXXXXXXXXXXXXXOXXXOXXXOXXXXXXXXO O ooooooooooooooooooooooooo",
"ooooooooooooooooooooooooooooo OXX XXX  XXXXXXXXXXXXXXXX   X   XXXXXXXXXO O ooooooooooooooooooooooooo",
"ooooooooooooooooooooooooooooo OXXXXX X XXXXXXXXXXXXXXXXXXXXXXXXXXXXXXXXO O ooooooooooooooooooooooooo",
"ooooooooooooooooooooooooooooo OX XXXX XXXXXXXXXXXXXXXXXXXXXXXXXXXXXXXXXO O oo                    ooo",
"ooooooooooooooooooooooooooooo O X XXXX XXXXXXXXXXXXXX          XXXXXXXXO O oo XXXXXXXXXXXXXXXXX  ooo",
"ooooooooooooooooooooooooooooo OX XXXX X XXXXXXXXXXXXX          XXXXXXXXO O   OXXXX       XXXXXX  ooo",
"ooooooooooooooooooooooooooooo OXX XXXX XXXXXXXXXXXXXXXXXXXXXXXXXXXXXXXXO OOOOOXX  XXXXXXX  XXXX  ooo",
"ooooooooooooooooooooooooooooo OX X XX X XXXXXXXXXXXXXX        XXXXXXXXXO      X XXXXXXXXXXX XXX  ooo",
"ooooooooooooooooooooooooooooo OXX XXXX XXXXXXXXXXXXXXXXXXXXXXXXXXXXXXXXO oooo X XXXXX XXXXX XXX  ooo",
"ooooooooooooooooooooooooooooo OXXXXXXXXXXXXXXXXXXXXXXXXXXXXXXXXXXXXXXXXO oooo X XXXXXXXXXXX XXX  ooo",
"ooooooooooooooooooooooooooooo OOOOOOOOOOOOOOOOOOOOOOOOOOOOOOOOOOOOOOOOOO oooo XX  XXXXXXX  XXXX  ooo",
"oooooooooooooooooooooooooooooo                                          ooooo XXXX       XXXXXX  ooo",
"ooooooooooooooooooooooooooooooooooooooooooooooooooooooooooooooooooooooooooooo XXXXXXXXXXXXXXXXX  ooo",
"ooooooooooooooooooooo                                                       o                    ooo",
"ooooooooooooooooooooo XXXXXXXXXXXXXXXXXXXXXXXXXXXXXXXXXXXXXXXXXXXXXXXXXXXXX oo                  oooo",
"ooooooooooooooooooooo                                                       oooooooooooooooooooooooo",
"ooooooooooooo                                                               oooooooooooooooooooooooo",
"ooooooooooooo         XX X X X XX X X XXXX X X XXX X  XX XX X XX  X X XX XX oooooooooooooooooooooooo",
"oooooooooo    ooooooo                                                       oooooooooooooooooooooooo",
"oooooooooo    ooooooo       XX XX X X X XXX XXX XX  XX XX XX XXX XXX XXX XX oooooooooooooooooooooooo",
"oooooooooo XX ooooooo XX  X XX XX X X X XXX XXX XX  XX XX XX XXX XXX XXX XX oooooooooooooooooooooooo",
"oooooooooo XX ooooooo                                                       oooooooooooooooooooooooo",
"oooooooooo    oooooooooooooooooooooooooooooooooooooooooooooooooooooooooooooooooooooooooooooooooooooo",
"oooooooooooooooooooooooooooooooooooooooooooooooooooooooooooooooooooooooooooooooooooooooooooooooooooo",
"oooooooooooooooooooooooooooooooooooooooooooooooooooooooooooooooooooooooooooooooooooooooooooooooooooo",
"oooooooooooooooooooooooooooooooooooooooooooooooooooooooooooooooooooooooooooooooooooooooooooooooooooo",
"oooooooooooooooooooooooooooooooooooooooooooooooooooooooooooooooooooooooooooooooooooooooooooooooooooo",
"oooooooooooooooooooooooooooooooooooooooooooooooooooooooooooooooooooooooooooooooooooooooooooooooooooo"
};
