/* XPM */
static char *_b62af5171754303e299d81a59b924ee1ZflaidXTon2qYz7[] = {
/* columns rows colors chars-per-pixel */
"100 100 7 1 ",
"  c black",
". c #464646",
"X c #22B14C",
"o c #B0AEB0",
"O c #A597C9",
"+ c #EBE6EB",
"@ c white",
/* pixels */
"OOOOOOOOOOOOOOOOOOOOOOOOOOOOOOOOOOOOOOOOOOOOOOOOOOOOOOOOOOOOOOOOOOOOOOOOOOOOOOOOOOOOOOOOOOOOOOOOOOOO",
"OOOOOOOOOOOOOOOOOOOOOOOOOOOOOOOOOOOOOOOOOOOOOOOOOOOOOOOOOOOOOOOOOOOOOOOOOOOOOOOOOOOOOOOOOOOOOOOOOOOO",
"OOOOOOOOOOOOOOOOOOOOOOOOOOOOOOOOOOOOOOOOOOOOOOOOOOOOOOOOOOOOOOOOOOOOOOOOOOOOOOOOOOOOOOOOOOOOOOOOOOOO",
"OOOOOOOOOOOOOOOOOOOOOOOOOOOOOOOOOOOOOOOOOOOOOOOOOOOOOOOOOOOOOOOOOOOOOOOOOOOOOOOOOOOOOOOOOOOOOOOOOOOO",
"OOOOOOOOOOOOOOOOOOOOOOOOOOOOOOOOOOOOOOOOOOOOOOOOOOOOOOOOOOOOOOOOOOOOOOOOOOOOOOOOOOOOOOOOOOOOOOOOOOOO",
"OOOOOOOOOOOOOOOOOOOOOOOOOOOOOOOOOOOOOOOOOOOOOOOOOOOOOOOOOOOOOOOOOOOOOOOOOOOOOOOOOOOOOOOOOOOOOOOOOOOO",
"OOOOOOOOOOOOOOOOOOOOOOOOOOOOOOOOOOOOOOOOOOOOOOOOOOOOOOOOOOOOOOOOOOOOOOOOOOOOOOOOOOOOOOOOOOOOOOOOOOOO",
"OOOOOOOOOOOOOOOOOOOOOOOOOOOOOOOOOOOOOOOOOOOOOOOOOOOOOOOOOOOOOOOOOOOOOOOOOOOOOOOOOOOOOOOOOOOOOOOOOOOO",
"OOOOOOOOOOOOOOOOOOOOOOOOOOOOOOOOOOOOOOOOOOOOOOOOOOOOOOOOOOOOOOOOOOOOOOOOOOOOOOOOOOOOOOOOOOOOOOOOOOOO",
"OOOOOOOOOOOOOOOOOOOOOOOOOOOOOOOOOOOOOOOOOOOOOOOOOOOOOOOOOOOOOOOOOOOOOOOOOOOOOOOOOOOOOOOOOOOOOOOOOOOO",
"OOOOOOOOOOOOOO                                                                       OOOOOOOOOOOOOOO",
"OOOOOOOOOOOOO +++++++++++++++++++++++++++++++++++++++++++++++++++++++++++++++++++++++ OOOOOOOOOOOOOO",
"OOOOOOOOOOOOO +++++++++++++++++++++++++++++++++++++++++++++++++++++++++++++++++++++++ OOOOOOOOOOOOOO",
"OOOOOOOOOOOOO ++@                                                                @+++ OOOOOOOOOOOOOO",
"OOOOOOOOOOOOO ++ ................................................................ +++ OOOOOOOOOOOOOO",
"OOOOOOOOOOOOO ++ ................................................................ +++ OOOOOOOOOOOOOO",
"OOOOOOOOOOOOO ++ ................................................................ +++ OOOOOOOOOOOOOO",
"OOOOOOOOOOOOO ++ ................................................................ +++ OOOOOOOOOOOOOO",
"OOOOOOOOOOOOO ++ ................................................................ +++ OOOOOOOOOOOOOO",
"OOOOOOOOOOOOO ++ ................................................................ +++ OOOOOOOOOOOOOO",
"OOOOOOOOOOOOO ++ ................................................................ +++ OOOOOOOOOOOOOO",
"OOOOOOOOOOOOO ++ ................................................................ +++ OOOOOOOOOOOOOO",
"OOOOOOOOOOOOO ++ ................................................................ +++ OOOOOOOOOOOOOO",
"OOOOOOOOOOOOO ++ ................................................................ +++ OOOOOOOOOOOOOO",
"OOOOOOOOOOOOO ++ ................................................................ +++ OOOOOOOOOOOOOO",
"OOOOOOOOOOOOO ++ ................................................................ +++ OOOOOOOOOOOOOO",
"OOOOOOOOOOOOO ++ ................................................................ +++ OOOOOOOOOOOOOO",
"OOOOOOOOOOOOO ++ ................................................................ +++ OOOOOOOOOOOOOO",
"OOOOOOOOOOOOO ++ .........XX....XXX..XXXXX....................................... +++ OOOOOOOOOOOOOO",
"OOOOOOOOOOOOO ++ ........X.....X.......X......................................... +++ OOOOOOOOOOOOOO",
"OOOOOOOOOOOOO ++ ........X.XX..XXX............................................... +++ OOOOOOOOOOOOOO",
"OOOOOOOOOOOOO ++ ........X..X..X.......X......................................... +++ OOOOOOOOOOOOOO",
"OOOOOOOOOOOOO ++ .........XX....XXX....X......................................... +++ OOOOOOOOOOOOOO",
"OOOOOOOOOOOOO ++ ................................................................ +++ OOOOOOOOOOOOOO",
"OOOOOOOOOOOOO ++ ................................................................ +++ OOOOOOOOOOOOOO",
"OOOOOOOOOOOOO ++ ................................................................ +++ OOOOOOOOOOOOOO",
"OOOOOOOOOOOOO ++ ................................................................ +++ OOOOOOOOOOOOOO",
"OOOOOOOOOOOOO ++ ................................................................ +++ OOOOOOOOOOOOOO",
"OOOOOOOOOOOOO ++ ................................................................ +++ OOOOOOOOOOOOOO",
"OOOOOOOOOOOOO ++ .........................XX..X..X..XXXXX...X.................... +++ OOOOOOOOOOOOOO",
"OOOOOOOOOOOOO ++ ........................X..X.X..X....X.....X.................... +++ OOOOOOOOOOOOOO",
"OOOOOOOOOOOOO ++ ........................X..X...............X.................... +++ OOOOOOOOOOOOOO",
"OOOOOOOOOOOOO ++ ........................X..X.X..X....X.......................... +++ OOOOOOOOOOOOOO",
"OOOOOOOOOOOOO ++ .........................XX...XX.....X.....X.................... +++ OOOOOOOOOOOOOO",
"OOOOOOOOOOOOO ++ ................................................................ +++ OOOOOOOOOOOOOO",
"OOOOOOOOOOOOO ++ ................................................................ +++ OOOOOOOOOOOOOO",
"OOOOOOOOOOOOO ++ ................................................................ +++ OOOOOOOOOOOOOO",
"OOOOOOOOOOOOO ++ ................................................................ +++ OOOOOOOOOOOOOO",
"OOOOOOOOOOOOO ++ ................................................................ +++ OOOOOOOOOOOOOO",
"OOOOOOOOOOOOO ++ ................................................................ +++ OOOOOOOOOOOOOO",
"OOOOOOOOOOOOO ++ ................................................................ +++ OOOOOOOOOOOOOO",
"OOOOOOOOOOOOO ++ ................................................................ +++ OOOOOOOOOOOOOO",
"OOOOOOOOOOOOO ++ ................................................................ +++ OOOOOOOOOOOOOO",
"OOOOOOOOOOOOO ++ ................................................................ +++ OOOOOOOOOOOOOO",
"OOOOOOOOOOOOO ++ ................................................................ +++ OOOOOOOOOOOOOO",
"OOOOOOOOOOOOO ++ ................................................................ +++ OOOOOOOOOOOOOO",
"OOOOOOOOOOOOO ++ ................................................................ +++ OOOOOOOOOOOOOO",
"OOOOOOOOOOOOO ++ ................................................................ +++ OOOOOOOOOOOOOO",
"OOOOOOOOOOOOO ++ ................................................................ +++ OOOOOOOOOOOOOO",
"OOOOOOOOOOOOO ++ ................................................................ +++ OOOOOOOOOOOOOO",
"OOOOOOOOOOOOO ++ ................................................................ +++ OOOOOOOOOOOOOO",
"OOOOOOOOOOOOO ++ ................................................................ +++ OOOOOOOOOOOOOO",
"OOOOOOOOOOOOO ++ ................................................................ +++ OOOOOOOOOOOOOO",
"OOOOOOOOOOOOO ++ ................................................................ +++ OOOOOOOOOOOOOO",
"OOOOOOOOOOOOO ++ ................................................................ +++ OOOOOOOOOOOOOO",
"OOOOOOOOOOOOO ++ ................................................................ +++ OOOOOOOOOOOOOO",
"OOOOOOOOOOOOO ++@                                                                @+++ OOOOOOOOOOOOOO",
"OOOOOOOOOOOOO +++++++++++++++++++++++++++++++++++++++++++++++++++++++++++++++++++++++ OOOOOOOOOOOOOO",
"OOOOOOOOOOOOO  ++++++++++++++++++++++++++++++++++++++++++++++++++++++++++++++++++++++ OOOOOOOOOOOOOO",
"OOOOOOOOOOOOOOO                                                                      OOOOOOOOOOOOOOO",
"OOOOOOOOOOOOOOOOOOOOOOOOOOOOOO++++++++++++++++++++++++++++++++++++++++++ + OOOOOOOOOOOOOOOOOOOOOOOOO",
"OOOOOOOOOOOOOOOOOOOOOOOOOOOOO +oo oooo ooooooooooooooo+ooo+ooo+oooooooo+ + OOOOOOOOOOOOOOOOOOOOOOOOO",
"OOOOOOOOOOOOOOOOOOOOOOOOOOOOO +o   oo o oooooooooooooo+ooo+ooo+oooooooo+ + OOOOOOOOOOOOOOOOOOOOOOOOO",
"OOOOOOOOOOOOOOOOOOOOOOOOOOOOO +oo ooo  oooooooooooooooo   o   ooooooooo+ + OOOOOOOOOOOOOOOOOOOOOOOOO",
"OOOOOOOOOOOOOOOOOOOOOOOOOOOOO +ooooo o oooooooooooooooooooooooooooooooo+ + OOOOOOOOOOOOOOOOOOOOOOOOO",
"OOOOOOOOOOOOOOOOOOOOOOOOOOOOO +o oooo ooooooooooooooooooooooooooooooooo+ + OO                    OOO",
"OOOOOOOOOOOOOOOOOOOOOOOOOOOOO + o oooo oooooooooooooo          oooooooo+ + OO ooooooooooooooooo  OOO",
"OOOOOOOOOOOOOOOOOOOOOOOOOOOOO +o oooo o ooooooooooooo          oooooooo+ +   +oooo       oooooo  OOO",
"OOOOOOOOOOOOOOOOOOOOOOOOOOOOO +oo oooo oooooooooooooooooooooooooooooooo+ +++++oo  ooooooo  oooo  OOO",
"OOOOOOOOOOOOOOOOOOOOOOOOOOOOO +o o oo o oooooooooooooo        ooooooooo+      o ooooooooooo ooo  OOO",
"OOOOOOOOOOOOOOOOOOOOOOOOOOOOO +oo oooo oooooooooooooooooooooooooooooooo+ OOOO o ooooo ooooo ooo  OOO",
"OOOOOOOOOOOOOOOOOOOOOOOOOOOOO +oooooooooooooooooooooooooooooooooooooooo+ OOOO o ooooooooooo ooo  OOO",
"OOOOOOOOOOOOOOOOOOOOOOOOOOOOO ++++++++++++++++++++++++++++++++++++++++++ OOOO oo  ooooooo  oooo  OOO",
"OOOOOOOOOOOOOOOOOOOOOOOOOOOOOO                                          OOOOO oooo       oooooo  OOO",
"OOOOOOOOOOOOOOOOOOOOOOOOOOOOOOOOOOOOOOOOOOOOOOOOOOOOOOOOOOOOOOOOOOOOOOOOOOOOO ooooooooooooooooo  OOO",
"OOOOOOOOOOOOOOOOOOOOO                                                       O                    OOO",
"OOOOOOOOOOOOOOOOOOOOO ooooooooooooooooooooooooooooooooooooooooooooooooooooo OO                  OOOO",
"OOOOOOOOOOOOOOOOOOOOO                                                       OOOOOOOOOOOOOOOOOOOOOOOO",
"OOOOOOOOOOOOO                                                               OOOOOOOOOOOOOOOOOOOOOOOO",
"OOOOOOOOOOOOO         oo o o o oo o o oooo o o ooo o  oo oo o oo  o o oo oo OOOOOOOOOOOOOOOOOOOOOOOO",
"OOOOOOOOOO    OOOOOOO                                                       OOOOOOOOOOOOOOOOOOOOOOOO",
"OOOOOOOOOO    OOOOOOO       oo oo o o o ooo ooo oo  oo oo oo ooo ooo ooo oo OOOOOOOOOOOOOOOOOOOOOOOO",
"OOOOOOOOOO oo OOOOOOO oo  o oo oo o o o ooo ooo oo  oo oo oo ooo ooo ooo oo OOOOOOOOOOOOOOOOOOOOOOOO",
"OOOOOOOOOO oo OOOOOOO                                                       OOOOOOOOOOOOOOOOOOOOOOOO",
"OOOOOOOOOO    OOOOOOOOOOOOOOOOOOOOOOOOOOOOOOOOOOOOOOOOOOOOOOOOOOOOOOOOOOOOOOOOOOOOOOOOOOOOOOOOOOOOOO",
"OOOOOOOOOOOOOOOOOOOOOOOOOOOOOOOOOOOOOOOOOOOOOOOOOOOOOOOOOOOOOOOOOOOOOOOOOOOOOOOOOOOOOOOOOOOOOOOOOOOO",
"OOOOOOOOOOOOOOOOOOOOOOOOOOOOOOOOOOOOOOOOOOOOOOOOOOOOOOOOOOOOOOOOOOOOOOOOOOOOOOOOOOOOOOOOOOOOOOOOOOOO",
"OOOOOOOOOOOOOOOOOOOOOOOOOOOOOOOOOOOOOOOOOOOOOOOOOOOOOOOOOOOOOOOOOOOOOOOOOOOOOOOOOOOOOOOOOOOOOOOOOOOO",
"OOOOOOOOOOOOOOOOOOOOOOOOOOOOOOOOOOOOOOOOOOOOOOOOOOOOOOOOOOOOOOOOOOOOOOOOOOOOOOOOOOOOOOOOOOOOOOOOOOOO",
"OOOOOOOOOOOOOOOOOOOOOOOOOOOOOOOOOOOOOOOOOOOOOOOOOOOOOOOOOOOOOOOOOOOOOOOOOOOOOOOOOOOOOOOOOOOOOOOOOOOO"
};
